<?xml version="1.0" encoding="utf-8" standalone="no"?>
<!DOCTYPE svg PUBLIC "-//W3C//DTD SVG 1.1//EN"
  "http://www.w3.org/Graphics/SVG/1.1/DTD/svg11.dtd">
<svg height="576pt" version="1.1" viewBox="0 0 1440 576" width="1440pt" xmlns="http://www.w3.org/2000/svg" xmlns:xlink="http://www.w3.org/1999/xlink">
 <metadata>
  <rdf:RDF xmlns:cc="http://creativecommons.org/ns#" xmlns:dc="http://purl.org/dc/elements/1.1/" xmlns:rdf="http://www.w3.org/1999/02/22-rdf-syntax-ns#">
   <cc:Work>
    <dc:type rdf:resource="http://purl.org/dc/dcmitype/StillImage"/>
    <dc:date>2021-11-07T21:49:40.994690</dc:date>
    <dc:format>image/svg+xml</dc:format>
    <dc:creator>
     <cc:Agent>
      <dc:title>Matplotlib v3.4.3, https://matplotlib.org/</dc:title>
     </cc:Agent>
    </dc:creator>
   </cc:Work>
  </rdf:RDF>
 </metadata>
 <defs>
  <style type="text/css">*{stroke-linecap:butt;stroke-linejoin:round;}</style>
 </defs>
 <g id="figure_1">
  <g id="patch_1">
   <path d="M 0 576 
L 1440 576 
L 1440 0 
L 0 0 
z
" style="fill:#ffffff;"/>
  </g>
  <g id="axes_1">
   <g id="patch_2">
    <path d="M 180 512.64 
L 1296 512.64 
L 1296 69.12 
L 180 69.12 
z
" style="fill:#ffffff;"/>
   </g>
   <g id="matplotlib.axis_1">
    <g id="xtick_1">
     <g id="line2d_1">
      <defs>
       <path d="M 0 0 
L 0 3.5 
" id="m48fc24554d" style="stroke:#000000;stroke-width:0.8;"/>
      </defs>
      <g>
       <use style="stroke:#000000;stroke-width:0.8;" x="230.727273" xlink:href="#m48fc24554d" y="512.64"/>
      </g>
     </g>
     <g id="text_1">
      <!-- 11 -->
      <g transform="translate(229.180477 531.572427)rotate(-45)scale(0.1 -0.1)">
       <defs>
        <path d="M 1400 3600 
Q 1075 3275 575 2975 
L 575 3450 
Q 1200 3875 1600 4450 
L 1900 4450 
L 1900 150 
L 1400 150 
L 1400 3600 
z
" id="SimHei-31" transform="scale(0.015625)"/>
       </defs>
       <use xlink:href="#SimHei-31"/>
       <use x="50" xlink:href="#SimHei-31"/>
      </g>
     </g>
    </g>
    <g id="xtick_2">
     <g id="line2d_2">
      <g>
       <use style="stroke:#000000;stroke-width:0.8;" x="284.124402" xlink:href="#m48fc24554d" y="512.64"/>
      </g>
     </g>
     <g id="text_2">
      <!-- 12 -->
      <g transform="translate(282.577606 531.572427)rotate(-45)scale(0.1 -0.1)">
       <defs>
        <path d="M 300 250 
Q 325 625 650 925 
Q 975 1225 1475 1862 
Q 1975 2500 2125 2850 
Q 2275 3200 2237 3450 
Q 2200 3700 2000 3862 
Q 1800 4025 1537 4000 
Q 1275 3975 1037 3800 
Q 800 3625 675 3275 
L 200 3350 
Q 400 3925 712 4187 
Q 1025 4450 1450 4475 
Q 1700 4500 1900 4462 
Q 2100 4425 2312 4287 
Q 2525 4150 2662 3875 
Q 2800 3600 2762 3212 
Q 2725 2825 2375 2287 
Q 2025 1750 1025 600 
L 2825 600 
L 2825 150 
L 300 150 
L 300 250 
z
" id="SimHei-32" transform="scale(0.015625)"/>
       </defs>
       <use xlink:href="#SimHei-31"/>
       <use x="50" xlink:href="#SimHei-32"/>
      </g>
     </g>
    </g>
    <g id="xtick_3">
     <g id="line2d_3">
      <g>
       <use style="stroke:#000000;stroke-width:0.8;" x="337.521531" xlink:href="#m48fc24554d" y="512.64"/>
      </g>
     </g>
     <g id="text_3">
      <!-- 13 -->
      <g transform="translate(335.974735 531.572427)rotate(-45)scale(0.1 -0.1)">
       <defs>
        <path d="M 250 1225 
L 700 1300 
Q 800 975 1025 762 
Q 1250 550 1587 562 
Q 1925 575 2125 837 
Q 2325 1100 2300 1437 
Q 2275 1775 2037 1962 
Q 1800 2150 1275 2225 
L 1275 2550 
Q 1800 2600 2037 2825 
Q 2275 3050 2250 3412 
Q 2225 3775 1925 3937 
Q 1625 4100 1287 3975 
Q 950 3850 750 3275 
L 300 3350 
Q 450 3800 712 4100 
Q 975 4400 1425 4450 
Q 1875 4500 2212 4337 
Q 2550 4175 2687 3837 
Q 2825 3500 2725 3100 
Q 2625 2700 2150 2400 
Q 2500 2250 2687 1950 
Q 2875 1650 2812 1162 
Q 2750 675 2375 375 
Q 2000 75 1525 87 
Q 1050 100 700 387 
Q 350 675 250 1225 
z
" id="SimHei-33" transform="scale(0.015625)"/>
       </defs>
       <use xlink:href="#SimHei-31"/>
       <use x="50" xlink:href="#SimHei-33"/>
      </g>
     </g>
    </g>
    <g id="xtick_4">
     <g id="line2d_4">
      <g>
       <use style="stroke:#000000;stroke-width:0.8;" x="390.91866" xlink:href="#m48fc24554d" y="512.64"/>
      </g>
     </g>
     <g id="text_4">
      <!-- 14 -->
      <g transform="translate(389.371864 531.572427)rotate(-45)scale(0.1 -0.1)">
       <defs>
        <path d="M 2000 1100 
L 75 1100 
L 75 1525 
L 2100 4450 
L 2475 4450 
L 2475 1525 
L 3075 1525 
L 3075 1100 
L 2475 1100 
L 2475 150 
L 2000 150 
L 2000 1100 
z
M 2000 1525 
L 2000 3500 
L 600 1525 
L 2000 1525 
z
" id="SimHei-34" transform="scale(0.015625)"/>
       </defs>
       <use xlink:href="#SimHei-31"/>
       <use x="50" xlink:href="#SimHei-34"/>
      </g>
     </g>
    </g>
    <g id="xtick_5">
     <g id="line2d_5">
      <g>
       <use style="stroke:#000000;stroke-width:0.8;" x="444.315789" xlink:href="#m48fc24554d" y="512.64"/>
      </g>
     </g>
     <g id="text_5">
      <!-- 15 -->
      <g transform="translate(442.768993 531.572427)rotate(-45)scale(0.1 -0.1)">
       <defs>
        <path d="M 550 1325 
Q 725 650 1150 575 
Q 1575 500 1837 662 
Q 2100 825 2212 1087 
Q 2325 1350 2312 1675 
Q 2300 2000 2137 2225 
Q 1975 2450 1725 2525 
Q 1475 2600 1162 2525 
Q 850 2450 650 2175 
L 225 2225 
Q 275 2375 700 4375 
L 2675 4375 
L 2675 3925 
L 1075 3925 
Q 950 3250 825 2850 
Q 1200 3025 1525 3012 
Q 1850 3000 2150 2862 
Q 2450 2725 2587 2487 
Q 2725 2250 2787 2012 
Q 2850 1775 2837 1500 
Q 2825 1225 2725 937 
Q 2625 650 2425 462 
Q 2225 275 1937 162 
Q 1650 50 1275 75 
Q 900 100 562 350 
Q 225 600 100 1200 
L 550 1325 
z
" id="SimHei-35" transform="scale(0.015625)"/>
       </defs>
       <use xlink:href="#SimHei-31"/>
       <use x="50" xlink:href="#SimHei-35"/>
      </g>
     </g>
    </g>
    <g id="xtick_6">
     <g id="line2d_6">
      <g>
       <use style="stroke:#000000;stroke-width:0.8;" x="497.712919" xlink:href="#m48fc24554d" y="512.64"/>
      </g>
     </g>
     <g id="text_6">
      <!-- 16 -->
      <g transform="translate(496.166123 531.572427)rotate(-45)scale(0.1 -0.1)">
       <defs>
        <path d="M 250 1612 
Q 275 1975 387 2225 
Q 500 2475 725 2850 
L 1750 4450 
L 2325 4450 
L 1275 2800 
Q 1950 2975 2350 2750 
Q 2750 2525 2887 2237 
Q 3025 1950 3037 1612 
Q 3050 1275 2937 950 
Q 2825 625 2537 362 
Q 2250 100 1737 75 
Q 1225 50 862 262 
Q 500 475 362 862 
Q 225 1250 250 1612 
z
M 1025 787 
Q 1250 550 1625 525 
Q 2000 500 2250 775 
Q 2500 1050 2500 1575 
Q 2500 2100 2187 2300 
Q 1875 2500 1487 2450 
Q 1100 2400 925 2075 
Q 750 1750 775 1387 
Q 800 1025 1025 787 
z
" id="SimHei-36" transform="scale(0.015625)"/>
       </defs>
       <use xlink:href="#SimHei-31"/>
       <use x="50" xlink:href="#SimHei-36"/>
      </g>
     </g>
    </g>
    <g id="xtick_7">
     <g id="line2d_7">
      <g>
       <use style="stroke:#000000;stroke-width:0.8;" x="551.110048" xlink:href="#m48fc24554d" y="512.64"/>
      </g>
     </g>
     <g id="text_7">
      <!-- 17 -->
      <g transform="translate(549.563252 531.572427)rotate(-45)scale(0.1 -0.1)">
       <defs>
        <path d="M 850 150 
Q 1300 2050 2425 3925 
L 275 3925 
L 275 4375 
L 2950 4375 
L 2950 3950 
Q 1775 2050 1400 150 
L 850 150 
z
" id="SimHei-37" transform="scale(0.015625)"/>
       </defs>
       <use xlink:href="#SimHei-31"/>
       <use x="50" xlink:href="#SimHei-37"/>
      </g>
     </g>
    </g>
    <g id="xtick_8">
     <g id="line2d_8">
      <g>
       <use style="stroke:#000000;stroke-width:0.8;" x="604.507177" xlink:href="#m48fc24554d" y="512.64"/>
      </g>
     </g>
     <g id="text_8">
      <!-- 18 -->
      <g transform="translate(602.960381 531.572427)rotate(-45)scale(0.1 -0.1)">
       <defs>
        <path d="M 175 1375 
Q 175 1675 325 1962 
Q 475 2250 825 2425 
Q 525 2600 425 2812 
Q 325 3025 312 3300 
Q 300 3575 387 3775 
Q 475 3975 650 4150 
Q 825 4325 1037 4387 
Q 1250 4450 1500 4450 
Q 1750 4450 1950 4400 
Q 2150 4350 2375 4187 
Q 2600 4025 2700 3725 
Q 2800 3425 2687 3025 
Q 2575 2625 2100 2400 
Q 2525 2275 2700 2012 
Q 2875 1750 2875 1375 
Q 2875 1000 2762 775 
Q 2650 550 2512 400 
Q 2375 250 2137 162 
Q 1900 75 1537 75 
Q 1175 75 912 162 
Q 650 250 475 425 
Q 300 600 237 837 
Q 175 1075 175 1375 
z
M 687 1400 
Q 675 1100 787 875 
Q 900 650 1200 587 
Q 1500 525 1825 600 
Q 2150 675 2275 950 
Q 2400 1225 2362 1500 
Q 2325 1775 2050 1962 
Q 1775 2150 1450 2125 
Q 1125 2100 912 1900 
Q 700 1700 687 1400 
z
M 775 3350 
Q 775 3100 950 2875 
Q 1125 2650 1500 2650 
Q 1875 2650 2062 2875 
Q 2250 3100 2237 3412 
Q 2225 3725 2012 3875 
Q 1800 4025 1437 4000 
Q 1075 3975 925 3787 
Q 775 3600 775 3350 
z
" id="SimHei-38" transform="scale(0.015625)"/>
       </defs>
       <use xlink:href="#SimHei-31"/>
       <use x="50" xlink:href="#SimHei-38"/>
      </g>
     </g>
    </g>
    <g id="xtick_9">
     <g id="line2d_9">
      <g>
       <use style="stroke:#000000;stroke-width:0.8;" x="657.904306" xlink:href="#m48fc24554d" y="512.64"/>
      </g>
     </g>
     <g id="text_9">
      <!-- 19 -->
      <g transform="translate(656.35751 531.572427)rotate(-45)scale(0.1 -0.1)">
       <defs>
        <path d="M 800 75 
Q 1350 1000 1700 1750 
Q 1075 1650 662 1912 
Q 250 2175 162 2625 
Q 75 3075 175 3437 
Q 275 3800 487 4037 
Q 700 4275 1000 4375 
Q 1300 4475 1537 4475 
Q 1775 4475 2025 4375 
Q 2275 4275 2475 4075 
Q 2675 3875 2750 3662 
Q 2825 3450 2825 3112 
Q 2825 2775 2575 2250 
Q 2325 1725 1350 75 
L 800 75 
z
M 662 2875 
Q 700 2550 937 2337 
Q 1175 2125 1450 2150 
Q 1725 2175 1887 2300 
Q 2050 2425 2200 2725 
Q 2300 3100 2250 3362 
Q 2200 3625 1987 3800 
Q 1775 3975 1525 3975 
Q 1375 4000 1137 3900 
Q 900 3800 762 3500 
Q 625 3200 662 2875 
z
" id="SimHei-39" transform="scale(0.015625)"/>
       </defs>
       <use xlink:href="#SimHei-31"/>
       <use x="50" xlink:href="#SimHei-39"/>
      </g>
     </g>
    </g>
    <g id="xtick_10">
     <g id="line2d_10">
      <g>
       <use style="stroke:#000000;stroke-width:0.8;" x="711.301435" xlink:href="#m48fc24554d" y="512.64"/>
      </g>
     </g>
     <g id="text_10">
      <!-- 20 -->
      <g transform="translate(709.754639 531.572427)rotate(-45)scale(0.1 -0.1)">
       <defs>
        <path d="M 225 2537 
Q 250 3200 412 3587 
Q 575 3975 875 4225 
Q 1175 4475 1612 4475 
Q 2050 4475 2375 4112 
Q 2700 3750 2800 3200 
Q 2900 2650 2862 1937 
Q 2825 1225 2612 775 
Q 2400 325 1975 150 
Q 1550 -25 1125 187 
Q 700 400 525 750 
Q 350 1100 275 1487 
Q 200 1875 225 2537 
z
M 750 2687 
Q 675 2000 800 1462 
Q 925 925 1212 700 
Q 1500 475 1800 612 
Q 2100 750 2237 1162 
Q 2375 1575 2375 2062 
Q 2375 2550 2337 2950 
Q 2300 3350 2112 3675 
Q 1925 4000 1612 4012 
Q 1300 4025 1062 3700 
Q 825 3375 750 2687 
z
" id="SimHei-30" transform="scale(0.015625)"/>
       </defs>
       <use xlink:href="#SimHei-32"/>
       <use x="50" xlink:href="#SimHei-30"/>
      </g>
     </g>
    </g>
    <g id="xtick_11">
     <g id="line2d_11">
      <g>
       <use style="stroke:#000000;stroke-width:0.8;" x="764.698565" xlink:href="#m48fc24554d" y="512.64"/>
      </g>
     </g>
     <g id="text_11">
      <!-- 21 -->
      <g transform="translate(763.151769 531.572427)rotate(-45)scale(0.1 -0.1)">
       <use xlink:href="#SimHei-32"/>
       <use x="50" xlink:href="#SimHei-31"/>
      </g>
     </g>
    </g>
    <g id="xtick_12">
     <g id="line2d_12">
      <g>
       <use style="stroke:#000000;stroke-width:0.8;" x="818.095694" xlink:href="#m48fc24554d" y="512.64"/>
      </g>
     </g>
     <g id="text_12">
      <!-- 22 -->
      <g transform="translate(816.548898 531.572427)rotate(-45)scale(0.1 -0.1)">
       <use xlink:href="#SimHei-32"/>
       <use x="50" xlink:href="#SimHei-32"/>
      </g>
     </g>
    </g>
    <g id="xtick_13">
     <g id="line2d_13">
      <g>
       <use style="stroke:#000000;stroke-width:0.8;" x="871.492823" xlink:href="#m48fc24554d" y="512.64"/>
      </g>
     </g>
     <g id="text_13">
      <!-- 23 -->
      <g transform="translate(869.946027 531.572427)rotate(-45)scale(0.1 -0.1)">
       <use xlink:href="#SimHei-32"/>
       <use x="50" xlink:href="#SimHei-33"/>
      </g>
     </g>
    </g>
    <g id="xtick_14">
     <g id="line2d_14">
      <g>
       <use style="stroke:#000000;stroke-width:0.8;" x="924.889952" xlink:href="#m48fc24554d" y="512.64"/>
      </g>
     </g>
     <g id="text_14">
      <!-- 24 -->
      <g transform="translate(923.343156 531.572427)rotate(-45)scale(0.1 -0.1)">
       <use xlink:href="#SimHei-32"/>
       <use x="50" xlink:href="#SimHei-34"/>
      </g>
     </g>
    </g>
    <g id="xtick_15">
     <g id="line2d_15">
      <g>
       <use style="stroke:#000000;stroke-width:0.8;" x="978.287081" xlink:href="#m48fc24554d" y="512.64"/>
      </g>
     </g>
     <g id="text_15">
      <!-- 25 -->
      <g transform="translate(976.740285 531.572427)rotate(-45)scale(0.1 -0.1)">
       <use xlink:href="#SimHei-32"/>
       <use x="50" xlink:href="#SimHei-35"/>
      </g>
     </g>
    </g>
    <g id="xtick_16">
     <g id="line2d_16">
      <g>
       <use style="stroke:#000000;stroke-width:0.8;" x="1031.684211" xlink:href="#m48fc24554d" y="512.64"/>
      </g>
     </g>
     <g id="text_16">
      <!-- 26 -->
      <g transform="translate(1030.137414 531.572427)rotate(-45)scale(0.1 -0.1)">
       <use xlink:href="#SimHei-32"/>
       <use x="50" xlink:href="#SimHei-36"/>
      </g>
     </g>
    </g>
    <g id="xtick_17">
     <g id="line2d_17">
      <g>
       <use style="stroke:#000000;stroke-width:0.8;" x="1085.08134" xlink:href="#m48fc24554d" y="512.64"/>
      </g>
     </g>
     <g id="text_17">
      <!-- 27 -->
      <g transform="translate(1083.534544 531.572427)rotate(-45)scale(0.1 -0.1)">
       <use xlink:href="#SimHei-32"/>
       <use x="50" xlink:href="#SimHei-37"/>
      </g>
     </g>
    </g>
    <g id="xtick_18">
     <g id="line2d_18">
      <g>
       <use style="stroke:#000000;stroke-width:0.8;" x="1138.478469" xlink:href="#m48fc24554d" y="512.64"/>
      </g>
     </g>
     <g id="text_18">
      <!-- 28 -->
      <g transform="translate(1136.931673 531.572427)rotate(-45)scale(0.1 -0.1)">
       <use xlink:href="#SimHei-32"/>
       <use x="50" xlink:href="#SimHei-38"/>
      </g>
     </g>
    </g>
    <g id="xtick_19">
     <g id="line2d_19">
      <g>
       <use style="stroke:#000000;stroke-width:0.8;" x="1191.875598" xlink:href="#m48fc24554d" y="512.64"/>
      </g>
     </g>
     <g id="text_19">
      <!-- 29 -->
      <g transform="translate(1190.328802 531.572427)rotate(-45)scale(0.1 -0.1)">
       <use xlink:href="#SimHei-32"/>
       <use x="50" xlink:href="#SimHei-39"/>
      </g>
     </g>
    </g>
    <g id="xtick_20">
     <g id="line2d_20">
      <g>
       <use style="stroke:#000000;stroke-width:0.8;" x="1245.272727" xlink:href="#m48fc24554d" y="512.64"/>
      </g>
     </g>
     <g id="text_20">
      <!-- 30 -->
      <g transform="translate(1243.725931 531.572427)rotate(-45)scale(0.1 -0.1)">
       <use xlink:href="#SimHei-33"/>
       <use x="50" xlink:href="#SimHei-30"/>
      </g>
     </g>
    </g>
    <g id="text_21">
     <!-- 年龄/year -->
     <g transform="translate(715.5 544.698498)scale(0.1 -0.1)">
      <defs>
       <path d="M 350 2925 
Q 900 3450 1375 4200 
Q 1850 4950 1900 5275 
Q 2275 5125 2600 5050 
Q 2375 4825 2100 4325 
L 4625 4325 
Q 5175 4325 5750 4350 
L 5750 3925 
Q 5225 3950 4625 3950 
L 3800 3950 
L 3800 2925 
Q 4750 2925 5475 2950 
L 5475 2525 
Q 4725 2550 3800 2550 
L 3800 1375 
L 5075 1375 
Q 5625 1375 6100 1400 
L 6100 975 
Q 5650 1000 5075 1000 
L 3800 1000 
L 3800 425 
Q 3800 -150 3825 -625 
L 3275 -625 
Q 3300 -150 3300 375 
L 3300 1000 
L 1600 1000 
Q 900 1000 275 975 
L 275 1400 
Q 875 1375 1450 1375 
Q 1450 2350 1425 2925 
L 3300 2925 
L 3300 3950 
L 1875 3950 
Q 1350 3150 925 2650 
Q 650 2875 350 2925 
z
M 3300 1375 
L 3300 2550 
L 1925 2550 
L 1925 1375 
L 3300 1375 
z
" id="SimHei-5e74" transform="scale(0.015625)"/>
       <path d="M 2125 2575 
Q 2075 2500 2012 2350 
Q 1950 2200 1900 1975 
Q 2300 1350 2475 1000 
Q 2300 900 2125 700 
Q 2075 900 1750 1550 
Q 1650 1175 1350 525 
Q 1200 650 950 750 
L 950 175 
Q 1875 275 2525 350 
Q 2525 2050 2500 2450 
L 2975 2450 
Q 2925 2100 2925 1000 
Q 2925 -75 2950 -550 
L 2525 -550 
L 2525 -25 
Q 2175 -25 525 -250 
Q 550 250 550 1200 
Q 550 2150 525 2500 
L 1000 2500 
Q 950 2150 950 775 
Q 1250 1175 1425 1762 
Q 1600 2350 1625 2750 
Q 1800 2675 2125 2575 
z
M 1150 4575 
Q 1125 4250 1125 3275 
L 1725 3275 
Q 1725 4725 1700 5100 
L 2175 5100 
Q 2125 4825 2125 4350 
Q 2500 4350 2950 4375 
L 2950 3975 
Q 2550 4000 2125 4000 
L 2125 3275 
Q 2600 3275 2950 3300 
L 2950 2900 
Q 2575 2925 1575 2925 
Q 575 2925 275 2900 
L 275 3325 
Q 500 3300 725 3300 
Q 725 4225 700 4575 
L 1150 4575 
z
M 5750 2075 
Q 5100 950 4700 275 
Q 4900 75 5250 -325 
Q 5000 -500 4875 -625 
Q 4525 -225 4175 162 
Q 3825 550 3450 875 
Q 3625 1025 3750 1150 
Q 3900 1025 4375 600 
Q 4750 1150 5025 1725 
L 3775 1725 
Q 3600 1725 3300 1700 
L 3300 2100 
Q 3600 2075 4025 2075 
L 5750 2075 
z
M 4700 5000 
Q 4650 4900 4550 4725 
Q 4825 4200 5225 3750 
Q 5625 3300 6200 3025 
Q 5975 2950 5800 2625 
Q 5275 3050 4975 3412 
Q 4675 3775 4375 4350 
Q 4225 3925 3975 3437 
Q 3725 2950 3275 2425 
Q 3075 2625 2900 2700 
Q 3300 3100 3662 3775 
Q 4025 4450 4125 5200 
Q 4400 5075 4700 5000 
z
M 4425 3250 
Q 4550 3025 4875 2500 
Q 4675 2400 4475 2250 
Q 4275 2650 4050 3000 
Q 4250 3150 4425 3250 
z
" id="SimHei-9f84" transform="scale(0.015625)"/>
       <path d="M 3000 4550 
L 350 -175 
L 100 -25 
L 2750 4700 
L 3000 4550 
z
" id="SimHei-2f" transform="scale(0.015625)"/>
       <path d="M 2900 2925 
L 1750 -100 
Q 1650 -450 1450 -625 
Q 1250 -800 950 -800 
Q 825 -800 712 -787 
Q 600 -775 500 -725 
L 500 -225 
Q 600 -275 700 -300 
Q 800 -325 875 -325 
Q 1075 -325 1150 -262 
Q 1225 -200 1300 25 
L 200 2925 
L 750 2925 
L 1550 725 
L 1575 725 
L 2350 2925 
L 2900 2925 
z
" id="SimHei-79" transform="scale(0.015625)"/>
       <path d="M 2850 1075 
Q 2800 625 2450 350 
Q 2100 75 1625 75 
Q 1025 75 637 462 
Q 250 850 250 1525 
Q 250 2200 637 2587 
Q 1025 2975 1625 2975 
Q 2150 2975 2487 2637 
Q 2825 2300 2825 1525 
L 800 1525 
Q 800 975 1037 750 
Q 1275 525 1625 525 
Q 1900 525 2075 662 
Q 2250 800 2300 1075 
L 2850 1075 
z
M 2250 1925 
Q 2200 2275 2025 2412 
Q 1850 2550 1575 2550 
Q 1325 2550 1125 2412 
Q 925 2275 825 1925 
L 2250 1925 
z
" id="SimHei-65" transform="scale(0.015625)"/>
       <path d="M 2875 125 
L 2275 125 
Q 2225 175 2200 262 
Q 2175 350 2175 475 
Q 2000 275 1750 175 
Q 1500 75 1225 75 
Q 825 75 550 275 
Q 275 475 275 850 
Q 275 1225 525 1450 
Q 775 1675 1300 1750 
Q 1650 1800 1912 1875 
Q 2175 1950 2175 2075 
Q 2175 2225 2062 2375 
Q 1950 2525 1575 2525 
Q 1275 2525 1137 2412 
Q 1000 2300 950 2100 
L 400 2100 
Q 450 2500 762 2737 
Q 1075 2975 1575 2975 
Q 2125 2975 2400 2725 
Q 2675 2475 2675 2025 
L 2675 650 
Q 2675 500 2725 375 
Q 2775 250 2875 125 
z
M 2175 1050 
L 2175 1550 
Q 2025 1500 1887 1462 
Q 1750 1425 1425 1375 
Q 1050 1325 937 1200 
Q 825 1075 825 900 
Q 825 750 937 637 
Q 1050 525 1275 525 
Q 1500 525 1762 650 
Q 2025 775 2175 1050 
z
" id="SimHei-61" transform="scale(0.015625)"/>
       <path d="M 2500 2425 
Q 2025 2500 1700 2287 
Q 1375 2075 1150 1550 
L 1150 125 
L 650 125 
L 650 2925 
L 1150 2925 
L 1150 2200 
Q 1375 2600 1712 2787 
Q 2050 2975 2500 2975 
L 2500 2425 
z
" id="SimHei-72" transform="scale(0.015625)"/>
      </defs>
      <use xlink:href="#SimHei-5e74"/>
      <use x="100" xlink:href="#SimHei-9f84"/>
      <use x="200" xlink:href="#SimHei-2f"/>
      <use x="250" xlink:href="#SimHei-79"/>
      <use x="300" xlink:href="#SimHei-65"/>
      <use x="350" xlink:href="#SimHei-61"/>
      <use x="400" xlink:href="#SimHei-72"/>
     </g>
    </g>
   </g>
   <g id="matplotlib.axis_2">
    <g id="ytick_1">
     <g id="line2d_21">
      <defs>
       <path d="M 0 0 
L -3.5 0 
" id="m6ec93e9c29" style="stroke:#000000;stroke-width:0.8;"/>
      </defs>
      <g>
       <use style="stroke:#000000;stroke-width:0.8;" x="180" xlink:href="#m6ec93e9c29" y="492.48"/>
      </g>
     </g>
     <g id="text_22">
      <!-- 0 -->
      <g transform="translate(168.580583 497.439393)rotate(-45)scale(0.1 -0.1)">
       <use xlink:href="#SimHei-30"/>
      </g>
     </g>
    </g>
    <g id="ytick_2">
     <g id="line2d_22">
      <g>
       <use style="stroke:#000000;stroke-width:0.8;" x="180" xlink:href="#m6ec93e9c29" y="358.08"/>
      </g>
     </g>
     <g id="text_23">
      <!-- 1 -->
      <g transform="translate(168.580583 363.039393)rotate(-45)scale(0.1 -0.1)">
       <use xlink:href="#SimHei-31"/>
      </g>
     </g>
    </g>
    <g id="ytick_3">
     <g id="line2d_23">
      <g>
       <use style="stroke:#000000;stroke-width:0.8;" x="180" xlink:href="#m6ec93e9c29" y="223.68"/>
      </g>
     </g>
     <g id="text_24">
      <!-- 2 -->
      <g transform="translate(168.580583 228.639393)rotate(-45)scale(0.1 -0.1)">
       <use xlink:href="#SimHei-32"/>
      </g>
     </g>
    </g>
    <g id="ytick_4">
     <g id="line2d_24">
      <g>
       <use style="stroke:#000000;stroke-width:0.8;" x="180" xlink:href="#m6ec93e9c29" y="89.28"/>
      </g>
     </g>
     <g id="text_25">
      <!-- 3 -->
      <g transform="translate(168.580583 94.239393)rotate(-45)scale(0.1 -0.1)">
       <use xlink:href="#SimHei-33"/>
      </g>
     </g>
    </g>
    <g id="text_26">
     <!-- 老婆个数/人 -->
     <g transform="translate(158.469223 318.38)rotate(-90)scale(0.1 -0.1)">
      <defs>
       <path d="M 2525 2000 
Q 2850 2200 3150 2475 
L 1325 2475 
Q 975 2475 425 2450 
L 425 2900 
Q 975 2875 1300 2875 
L 2550 2875 
L 2550 3800 
L 2000 3800 
Q 1575 3800 1125 3750 
L 1125 4225 
Q 1575 4200 1975 4200 
L 2550 4200 
Q 2550 4775 2525 5150 
L 3050 5150 
Q 3025 4875 3025 4200 
Q 3525 4200 4350 4225 
L 4350 3775 
Q 3525 3800 3025 3800 
L 3025 2875 
L 3650 2875 
Q 4150 3425 4475 3850 
Q 4800 4275 5075 4800 
Q 5275 4625 5575 4475 
Q 5350 4250 5062 3875 
Q 4775 3500 4225 2875 
L 5200 2875 
Q 5550 2875 5975 2900 
L 5975 2450 
Q 5550 2475 5200 2475 
L 3850 2475 
Q 3550 2250 3175 1962 
Q 2800 1675 2550 1525 
L 2550 1075 
Q 3825 1450 4700 2075 
Q 4825 1775 5000 1600 
Q 4725 1450 4012 1162 
Q 3300 875 2550 650 
L 2550 275 
Q 2525 -100 3175 -75 
Q 3650 -125 4125 -75 
Q 4650 -75 4787 25 
Q 4925 125 5025 625 
Q 5225 475 5575 350 
Q 5325 -175 5112 -312 
Q 4900 -450 4400 -475 
Q 3550 -550 2675 -475 
Q 2075 -475 2075 150 
L 2075 1250 
Q 1825 1075 1525 912 
Q 1225 750 575 425 
Q 475 650 250 875 
Q 575 975 1150 1237 
Q 1725 1500 2075 1750 
L 2075 2000 
L 2525 2000 
z
" id="SimHei-8001" transform="scale(0.015625)"/>
       <path d="M 5225 3950 
Q 5275 4175 5325 4325 
L 4300 4325 
L 4300 3675 
L 5500 3675 
Q 5425 3425 5187 3087 
Q 4950 2750 4600 2500 
Q 5450 2325 6000 2375 
Q 5825 2175 5800 1925 
Q 5075 1975 4200 2250 
Q 3600 2000 3225 1875 
Q 3150 2100 2925 2250 
Q 3225 2275 3825 2475 
Q 3300 2800 3125 3325 
L 2825 3325 
Q 2775 3025 2662 2712 
Q 2550 2400 2225 1950 
Q 2025 2100 1725 2150 
Q 2125 2575 2250 2887 
Q 2375 3200 2412 3537 
Q 2450 3875 2437 4175 
Q 2425 4475 2425 4675 
L 3825 4675 
Q 3850 4925 3825 5225 
L 4325 5225 
Q 4300 4900 4300 4675 
L 5900 4675 
Q 5725 4125 5625 3850 
Q 5400 3900 5225 3950 
z
M 500 -200 
Q 1475 -125 2000 -12 
Q 2525 100 3100 350 
Q 2675 450 1575 650 
Q 1675 750 2025 1125 
L 1175 1125 
Q 850 1125 275 1100 
L 275 1500 
Q 850 1475 1150 1475 
L 2300 1475 
Q 2500 1750 2575 2000 
Q 2975 1850 3225 1800 
Q 3100 1725 2875 1475 
L 5225 1475 
Q 5700 1475 6150 1500 
L 6150 1100 
Q 5675 1125 5225 1125 
L 4650 1125 
Q 4475 900 4000 450 
Q 4400 375 4825 250 
Q 5250 125 5875 -125 
Q 5700 -250 5500 -525 
Q 5050 -300 4675 -150 
Q 4300 0 3575 175 
Q 3175 -50 2650 -237 
Q 2125 -425 925 -650 
Q 800 -425 500 -200 
z
M 1875 2875 
Q 1000 2100 800 1875 
Q 625 2100 425 2250 
Q 1100 2700 1650 3225 
Q 1725 3100 1875 2875 
z
M 3850 3675 
L 3850 4325 
L 2875 4325 
L 2875 3675 
L 3850 3675 
z
M 3550 600 
Q 3950 950 4075 1125 
L 2600 1125 
Q 2450 975 2350 825 
Q 3150 700 3550 600 
z
M 3575 3325 
Q 3925 2800 4225 2700 
Q 4550 2900 4850 3325 
L 3575 3325 
z
M 1675 4275 
Q 1325 4525 875 4750 
Q 1025 4925 1100 5100 
Q 1700 4800 1950 4625 
Q 1775 4450 1675 4275 
z
M 1350 3425 
Q 1075 3625 525 3825 
Q 650 4025 725 4200 
Q 1350 3925 1600 3800 
Q 1425 3600 1350 3425 
z
" id="SimHei-5a46" transform="scale(0.015625)"/>
       <path d="M 3425 4825 
Q 4475 3275 6150 2775 
Q 5900 2475 5775 2200 
Q 4150 2900 3150 4425 
Q 2225 2950 675 2125 
Q 550 2350 250 2600 
Q 1450 3100 2112 3875 
Q 2775 4650 3000 5275 
Q 3300 5150 3600 5050 
Q 3500 4925 3425 4825 
z
M 2925 2350 
Q 2925 2750 2875 3375 
L 3450 3375 
Q 3425 2950 3425 2325 
L 3425 550 
Q 3425 -25 3450 -625 
L 2900 -625 
Q 2925 0 2925 525 
L 2925 2350 
z
" id="SimHei-4e2a" transform="scale(0.015625)"/>
       <path d="M 4525 4925 
Q 4475 4800 4400 4587 
Q 4325 4375 4175 3825 
L 5325 3825 
Q 5575 3825 5925 3850 
L 5925 3400 
Q 5650 3425 5500 3425 
Q 5500 3025 5362 2162 
Q 5225 1300 4875 675 
Q 5125 375 5437 137 
Q 5750 -100 6025 -200 
Q 5725 -425 5625 -625 
Q 5325 -450 5075 -225 
Q 4825 0 4575 325 
Q 4300 25 3987 -187 
Q 3675 -400 3200 -650 
Q 3075 -425 2850 -300 
Q 3225 -150 3650 125 
Q 4075 400 4300 675 
Q 4125 1025 3962 1425 
Q 3800 1825 3675 2475 
Q 3600 2275 3425 1950 
Q 3250 2050 3000 2150 
Q 3400 2850 3650 3675 
Q 3900 4500 3975 5100 
Q 4275 4975 4525 4925 
z
M 2100 2250 
Q 2000 2150 1875 1925 
L 3250 1925 
Q 3100 1300 2725 675 
Q 3125 525 3350 400 
Q 3225 225 3125 25 
Q 2900 175 2450 325 
Q 1950 -225 725 -650 
Q 600 -375 400 -275 
Q 1575 0 2000 475 
Q 1300 650 850 775 
Q 1000 1000 1250 1525 
Q 1000 1525 425 1500 
L 425 1950 
Q 900 1925 1400 1925 
Q 1500 2150 1550 2425 
Q 1825 2325 2100 2250 
z
M 1775 3950 
Q 1775 4550 1750 5100 
L 2250 5100 
Q 2225 4575 2225 3950 
Q 3075 3950 3425 3975 
L 3425 3525 
Q 3075 3550 2225 3550 
Q 2225 2825 2250 2425 
L 1750 2425 
Q 1775 2775 1775 3300 
Q 1650 3100 1300 2787 
Q 950 2475 650 2300 
Q 525 2525 275 2625 
Q 500 2700 875 2975 
Q 1250 3250 1450 3550 
Q 950 3550 500 3525 
L 500 3975 
Q 925 3950 1775 3950 
z
M 3975 3175 
Q 4200 1700 4600 1125 
Q 4850 1700 4937 2287 
Q 5025 2875 5050 3425 
L 4075 3425 
L 3975 3175 
z
M 1450 1000 
Q 1750 925 2275 800 
Q 2475 1050 2650 1525 
L 1725 1525 
Q 1600 1275 1450 1000 
z
M 3325 4825 
Q 3200 4625 3125 4450 
Q 3050 4275 2925 4025 
Q 2725 4125 2525 4175 
Q 2725 4500 2900 5000 
Q 3150 4875 3325 4825 
z
M 2575 3375 
Q 2900 3050 3200 2725 
Q 3050 2600 2875 2425 
Q 2525 2850 2300 3100 
Q 2450 3225 2575 3375 
z
M 925 5000 
Q 1275 4650 1500 4300 
L 1125 4075 
Q 950 4425 600 4725 
Q 825 4875 925 5000 
z
" id="SimHei-6570" transform="scale(0.015625)"/>
       <path d="M 350 -150 
Q 1325 325 1875 1025 
Q 2425 1725 2637 2462 
Q 2850 3200 2875 3837 
Q 2900 4475 2850 5175 
Q 3125 5150 3475 5125 
Q 3400 4725 3400 4300 
Q 3400 3875 3450 3325 
Q 3500 2775 4162 1662 
Q 4825 550 6100 0 
Q 5800 -300 5700 -500 
Q 3950 350 3200 2575 
Q 2700 600 775 -575 
Q 625 -375 350 -150 
z
" id="SimHei-4eba" transform="scale(0.015625)"/>
      </defs>
      <use xlink:href="#SimHei-8001"/>
      <use x="100" xlink:href="#SimHei-5a46"/>
      <use x="200" xlink:href="#SimHei-4e2a"/>
      <use x="300" xlink:href="#SimHei-6570"/>
      <use x="400" xlink:href="#SimHei-2f"/>
      <use x="450" xlink:href="#SimHei-4eba"/>
     </g>
    </g>
   </g>
   <g id="line2d_25">
    <path clip-path="url(#p55931ea8ef)" d="M 230.727273 89.28 
L 284.124402 223.68 
L 337.521531 223.68 
L 390.91866 223.68 
L 444.315789 358.08 
L 497.712919 223.68 
L 551.110048 223.68 
L 604.507177 358.08 
L 657.904306 492.48 
L 711.301435 358.08 
L 764.698565 89.28 
L 818.095694 358.08 
L 871.492823 223.68 
L 924.889952 358.08 
L 978.287081 223.68 
L 1031.684211 223.68 
L 1085.08134 358.08 
L 1138.478469 89.28 
L 1191.875598 358.08 
L 1245.272727 492.48 
" style="fill:none;stroke:#1f77b4;stroke-linecap:square;stroke-width:1.5;"/>
   </g>
   <g id="patch_3">
    <path d="M 180 512.64 
L 180 69.12 
" style="fill:none;stroke:#000000;stroke-linecap:square;stroke-linejoin:miter;stroke-width:0.8;"/>
   </g>
   <g id="patch_4">
    <path d="M 1296 512.64 
L 1296 69.12 
" style="fill:none;stroke:#000000;stroke-linecap:square;stroke-linejoin:miter;stroke-width:0.8;"/>
   </g>
   <g id="patch_5">
    <path d="M 180 512.64 
L 1296 512.64 
" style="fill:none;stroke:#000000;stroke-linecap:square;stroke-linejoin:miter;stroke-width:0.8;"/>
   </g>
   <g id="patch_6">
    <path d="M 180 69.12 
L 1296 69.12 
" style="fill:none;stroke:#000000;stroke-linecap:square;stroke-linejoin:miter;stroke-width:0.8;"/>
   </g>
   <g id="text_27">
    <!-- 舰长每年老婆的个数 -->
    <g transform="translate(684 63.12)scale(0.12 -0.12)">
     <defs>
      <path d="M 1900 5075 
Q 1800 4775 1750 4475 
L 2750 4475 
Q 2725 4050 2725 3650 
L 2725 250 
Q 2725 -350 1900 -400 
Q 1925 -125 1775 200 
Q 2275 75 2275 350 
L 2275 2075 
L 1100 2075 
Q 1100 1600 1050 1075 
Q 1000 550 875 137 
Q 750 -275 600 -575 
Q 400 -350 200 -225 
Q 325 -25 437 312 
Q 550 650 600 1075 
Q 650 1500 650 2075 
Q 450 2075 225 2050 
L 225 2500 
Q 475 2475 650 2475 
L 650 3650 
Q 650 4025 625 4475 
L 1250 4475 
Q 1300 4900 1300 5175 
Q 1575 5125 1900 5075 
z
M 4650 3775 
Q 4575 3600 4525 3062 
Q 4475 2525 4375 1625 
L 4875 1625 
Q 4825 1375 4825 1075 
L 4825 150 
Q 4825 -50 5075 -50 
L 5425 -50 
Q 5625 -50 5650 650 
Q 5900 525 6175 425 
Q 6025 -475 5575 -475 
L 4950 -475 
Q 4350 -475 4350 0 
L 4350 1475 
Q 4075 750 3837 387 
Q 3600 25 3375 -175 
L 2950 -625 
Q 2750 -400 2550 -225 
Q 3000 75 3300 425 
Q 3600 775 3787 1237 
Q 3975 1700 4037 2325 
Q 4100 2950 4100 3825 
Q 4350 3775 4650 3775 
z
M 5600 4775 
Q 5575 4225 5575 3900 
L 5575 2625 
Q 5575 2075 5600 1550 
L 5125 1550 
L 5125 4375 
L 3625 4375 
L 3625 1525 
L 3175 1525 
Q 3200 2075 3200 2600 
L 3200 3800 
Q 3200 4200 3175 4775 
L 5600 4775 
z
M 2275 2475 
L 2275 4075 
L 1100 4075 
L 1100 2475 
L 2275 2475 
z
M 1725 1775 
Q 1850 1450 2050 875 
Q 1800 800 1625 700 
Q 1400 1400 1300 1625 
Q 1475 1700 1725 1775 
z
M 1800 3775 
Q 1875 3525 2050 2925 
Q 1800 2875 1625 2800 
Q 1550 3100 1375 3650 
Q 1575 3700 1800 3775 
z
" id="SimHei-8230" transform="scale(0.015625)"/>
      <path d="M 1750 2800 
L 1750 4450 
Q 1750 4675 1725 5100 
L 2275 5100 
Q 2250 4625 2250 4475 
L 2250 2800 
L 5275 2800 
Q 5600 2800 5975 2825 
L 5975 2325 
Q 5500 2350 5100 2350 
L 3650 2350 
Q 3825 1850 4187 1375 
Q 4550 900 5050 587 
Q 5550 275 5950 150 
Q 5625 -50 5450 -350 
Q 4925 -75 4475 300 
Q 4025 675 3675 1212 
Q 3325 1750 3150 2350 
L 2250 2350 
L 2250 375 
Q 2975 825 3225 1050 
Q 3400 775 3575 550 
Q 3100 325 2625 -12 
Q 2150 -350 1925 -575 
Q 1725 -300 1550 -100 
Q 1750 100 1750 425 
L 1750 2350 
L 1175 2350 
Q 825 2350 375 2325 
L 375 2825 
Q 825 2800 1125 2800 
L 1750 2800 
z
M 4900 4700 
Q 4625 4475 4087 3937 
Q 3550 3400 3025 2900 
Q 2800 3200 2650 3300 
Q 3075 3600 3600 4150 
Q 4125 4700 4400 5100 
Q 4600 4925 4900 4700 
z
" id="SimHei-957f" transform="scale(0.015625)"/>
      <path d="M 5225 3650 
Q 5175 3150 5150 2675 
L 5125 2200 
Q 5525 2200 6000 2225 
L 6000 1775 
Q 5625 1800 5100 1800 
L 5050 650 
Q 5325 650 5700 675 
L 5700 225 
Q 5400 250 5025 250 
Q 5000 -275 4775 -425 
Q 4550 -575 4000 -650 
Q 3950 -400 3775 -125 
Q 4375 -125 4475 -50 
Q 4575 25 4575 250 
L 1400 250 
L 1500 1100 
L 1550 1800 
L 1275 1800 
Q 825 1800 550 1775 
L 550 2225 
Q 975 2200 1275 2200 
L 1575 2200 
L 1625 2825 
L 1675 3650 
L 5225 3650 
z
M 2350 5000 
Q 2175 4825 2050 4600 
L 4875 4600 
Q 5275 4600 5775 4625 
L 5775 4175 
Q 5275 4200 4875 4200 
L 1825 4200 
L 1375 3625 
Q 1125 3325 775 2975 
Q 600 3175 350 3300 
Q 725 3575 1150 4112 
Q 1575 4650 1825 5250 
Q 2125 5075 2350 5000 
z
M 1975 1800 
L 1875 650 
L 4625 650 
L 4675 1800 
L 2950 1800 
Q 3575 1275 3825 1125 
Q 3625 925 3475 725 
Q 3100 1100 2650 1475 
Q 2775 1675 2875 1800 
L 1975 1800 
z
M 2975 3250 
Q 3125 3150 3287 3012 
Q 3450 2875 3800 2550 
Q 3650 2350 3525 2200 
L 4700 2200 
L 4750 3250 
L 2975 3250 
z
M 2075 3250 
L 2000 2200 
L 3425 2200 
Q 3150 2500 3012 2625 
Q 2875 2750 2700 2900 
Q 2800 3050 2925 3250 
L 2075 3250 
z
" id="SimHei-6bcf" transform="scale(0.015625)"/>
      <path d="M 2100 4975 
Q 1975 4750 1750 3950 
L 2875 3950 
Q 2850 3525 2850 2875 
L 2850 675 
Q 2850 300 2875 -400 
L 2375 -400 
L 2375 100 
L 1100 100 
L 1100 -450 
L 600 -450 
Q 625 350 625 550 
L 625 2850 
Q 625 3525 600 3950 
L 1325 3950 
Q 1450 4525 1525 5150 
Q 1875 5025 2100 4975 
z
M 5825 3075 
Q 5800 1550 5700 175 
Q 5650 -275 5225 -425 
Q 4800 -575 4275 -625 
Q 4250 -350 4050 -50 
Q 4550 -75 4837 -25 
Q 5125 25 5200 200 
Q 5275 375 5312 1225 
Q 5350 2075 5375 3600 
L 3925 3600 
Q 3725 3125 3350 2475 
Q 3175 2650 2925 2750 
Q 3150 3050 3350 3475 
Q 3550 3900 3700 4400 
Q 3850 4900 3875 5175 
Q 4225 5025 4475 4950 
Q 4350 4750 4262 4512 
Q 4175 4275 4075 4050 
L 5850 4050 
Q 5825 3525 5825 3075 
z
M 2375 525 
L 2375 1850 
L 1100 1850 
L 1100 525 
L 2375 525 
z
M 2375 2275 
L 2375 3525 
L 1100 3525 
L 1100 2275 
L 2375 2275 
z
M 4350 2050 
Q 4500 1750 4700 1275 
Q 4525 1200 4225 1025 
Q 4050 1500 3900 1837 
Q 3750 2175 3600 2400 
Q 3775 2500 4050 2650 
L 4350 2050 
z
" id="SimHei-7684" transform="scale(0.015625)"/>
     </defs>
     <use xlink:href="#SimHei-8230"/>
     <use x="100" xlink:href="#SimHei-957f"/>
     <use x="200" xlink:href="#SimHei-6bcf"/>
     <use x="300" xlink:href="#SimHei-5e74"/>
     <use x="400" xlink:href="#SimHei-8001"/>
     <use x="500" xlink:href="#SimHei-5a46"/>
     <use x="600" xlink:href="#SimHei-7684"/>
     <use x="700" xlink:href="#SimHei-4e2a"/>
     <use x="800" xlink:href="#SimHei-6570"/>
    </g>
   </g>
  </g>
 </g>
 <defs>
  <clipPath id="p55931ea8ef">
   <rect height="443.52" width="1116" x="180" y="69.12"/>
  </clipPath>
 </defs>
</svg>
